<svg fill="#0844fc" viewBox="0 0 612.27 91.01" xmlns="http://www.w3.org/2000/svg"><path d="m134.51 28.17v34.71c0 6.44-5.22 11.65-11.65 11.65v-34.7c-.01-6.44 5.21-11.66 11.65-11.66z"/><path d="m184.78 73.34h-11.31v-21.85c0-8.76-1.7-14.12-7.99-14.12-5.61 0-9.69 4.59-9.69 13.86v22.11h-11.31v-45.15h11.31v5.19c3.83-4.17 8.76-6.38 14.12-6.38s10.38 2.64 13.18 8.08c4.17-5.27 8.33-8.08 15.14-8.08 5.02 0 9.53 2.04 12.08 5.27 2.98 3.74 3.32 8.67 3.32 14.63v26.45h-11.31v-24.92c0-7.4-2.64-11.06-7.74-11.06-5.7 0-9.78 4.42-9.78 13.69v22.28z"/><path d="m257.18 68.58c-4 3.91-8.25 5.95-13.95 5.95-11.48 0-21.52-9.86-21.52-23.73s9.53-23.81 21.26-23.81c5.44 0 10.12 2.04 14.2 6.12v-4.93h11.31v45.16h-11.31v-4.76zm-24.07-17.86c0 7.74 5.1 13.44 12.16 13.44s12.42-5.27 12.42-13.52-5.27-13.27-12.42-13.27-12.16 5.95-12.16 13.35z"/><path d="m323.5 66.94c0 8.76-1.7 14.63-6.89 19.05-4.08 3.4-9.53 5.02-16.41 5.02-12.42 0-20.33-4.85-23.39-14.29h12.5c2.3 2.72 5.7 3.91 10.46 3.91 4.17 0 7.57-1.11 9.61-2.98 2.72-2.55 2.81-5.61 2.81-9.87-3.74 3.66-7.82 5.61-13.69 5.61-12.16 0-21.69-9.7-21.69-23.22s9.61-23.13 21.09-23.13c5.61 0 10.03 2.13 14.29 6.12v-4.93h11.31zm-35.29-16.67c0 7.48 5.36 12.76 12.42 12.76s12.16-5.02 12.16-12.67-4.85-12.93-12.33-12.93c-7.49 0-12.25 5.87-12.25 12.84z"/><path d="m376.24 64.59c-4.85 6.89-11.23 9.95-20.75 9.95-14.37 0-23.64-10.55-23.64-23.81 0-12.33 8.93-23.73 23.47-23.73s23.98 10.21 23.98 24.49c0 1.02-.09 1.53-.09 2.55h-36.4c1.11 6.72 6.21 10.46 12.67 10.46 4.85 0 8.08-1.36 11.23-4.42zm-8.34-19.48c-1.53-5.27-6.38-8.51-12.42-8.51-5.61 0-9.95 2.81-12.16 8.51z"/><path d="m443.1 68.58c-4 3.91-8.25 5.95-13.95 5.95-11.48 0-21.52-9.86-21.52-23.73s9.53-23.81 21.26-23.81c5.44 0 10.12 2.04 14.2 6.12v-4.93h11.31v45.16h-11.31v-4.76zm-24.07-17.86c0 7.74 5.1 13.44 12.16 13.44s12.42-5.27 12.42-13.52-5.27-13.27-12.42-13.27-12.16 5.95-12.16 13.35z"/><path d="m476.64 32.78c4.34-3.66 8.34-5.78 13.35-5.78 8.42 0 15.48 5.78 15.48 15.48v30.87h-11.31v-21.35c0-8.93-.77-14.63-7.65-14.63-3.15 0-5.87 1.53-7.65 4.34-2.3 3.66-2.21 7.74-2.21 12.42v19.22h-11.31v-45.16h11.31v4.59z"/><path d="m559.28 65.1c-4.85 6.29-11.65 9.44-20.5 9.44-15.39 0-25.34-10.46-25.34-23.64s10.55-23.9 25.51-23.9c8.85 0 16.33 3.66 20.84 10.29l-9.44 5.19c-3.23-3.4-6.38-5.1-11.31-5.1-8.67 0-14.2 5.87-14.2 13.69s5.36 13.1 13.69 13.1c5.02 0 9.01-1.7 11.82-5.19z"/><path d="m609.21 64.59c-4.85 6.89-11.23 9.95-20.75 9.95-14.37 0-23.64-10.55-23.64-23.81 0-12.33 8.93-23.73 23.47-23.73s23.98 10.21 23.98 24.49c0 1.02-.09 1.53-.09 2.55h-36.4c1.11 6.72 6.21 10.46 12.67 10.46 4.85 0 8.08-1.36 11.23-4.42zm-8.33-19.48c-1.53-5.27-6.38-8.51-12.42-8.51-5.61 0-9.95 2.81-12.16 8.51z"/><path d="m399.29 22.27v52.13c-6.44 0-11.65-5.22-11.65-11.65v-52.13c6.43 0 11.65 5.22 11.65 11.65z"/><circle cx="128.68" cy="15.69" r="7.39"/><path d="m16.38 0c-9.05 0-16.38 7.33-16.38 16.38v38.64c9.04 0 16.38-7.33 16.38-16.38v-22.26h49.96v49.96h-22.26c-9.04 0-16.38 7.33-16.38 16.38h38.64c9.04 0 16.38-7.33 16.38-16.38v-66.34z"/><circle cx="10.39" cy="72.33" r="10.39"/></svg>