<?xml version="1.0" encoding="UTF-8"?><svg id="uuid-fb0fd0d0-1c56-4bf5-90d3-29c5be78ced2" xmlns="http://www.w3.org/2000/svg" xmlns:xlink="http://www.w3.org/1999/xlink" viewBox="0 0 479.15 608"><defs><clipPath id="uuid-8dd2c914-02d4-4ca4-aaae-1b0cfada9c75"><rect width="479.15" height="608" style="fill:none;"/></clipPath><linearGradient id="uuid-62388074-fe85-4899-80fd-2cf01d2e5947" x1="239.28" y1="120.77" x2="239.55" y2="598.32" gradientUnits="userSpaceOnUse"><stop offset="0" stop-color="#bde7ff"/><stop offset=".3" stop-color="#b7e3ff"/><stop offset=".68" stop-color="#a6d8ff"/><stop offset="1" stop-color="#94ccff"/></linearGradient><linearGradient id="uuid-a4cbb5c0-bb58-4692-a441-52bd2c066d9c" x1="238.05" y1="261.65" x2="237.69" y2="161.07" gradientTransform="translate(0 498.72) scale(1 -1)" gradientUnits="userSpaceOnUse"><stop offset="0" stop-color="#42c6da" stop-opacity=".12"/><stop offset="1" stop-color="#0065ff" stop-opacity=".32"/></linearGradient><clipPath id="uuid-2e217b64-407b-4b83-8300-486e94fee44e"><rect x="194.87" y="218.36" width="120" height="120" style="fill:none;"/></clipPath><linearGradient id="uuid-737fba75-7e8d-4716-845f-0166467b3318" x1="39.74" y1="40.58" x2="163.76" y2="329.73" gradientUnits="userSpaceOnUse"><stop offset="0" stop-color="#aae6f0"/><stop offset="1" stop-color="#e1ffff"/></linearGradient><linearGradient id="uuid-3e443b24-878d-4463-9f7a-a3a7f38f9525" x1="200.85" y1="11.69" x2="200.59" y2="-49.1" gradientTransform="translate(0 498.72) scale(1 -1)" gradientUnits="userSpaceOnUse"><stop offset="0" stop-color="#42c6da" stop-opacity=".12"/><stop offset="1" stop-color="#0065ff" stop-opacity=".32"/></linearGradient><clipPath id="uuid-5b86a81b-27d2-4322-b133-7d778771df7a"><rect x="150.87" y="467.36" width="100" height="100" style="fill:none;"/></clipPath><clipPath id="uuid-5295ac48-b235-4081-ba86-9ea85bb031c4"><rect x="94.87" y="29.36" width="140" height="140" style="fill:none;"/></clipPath><clipPath id="uuid-5c7af2a7-10bd-4f3f-ba80-7be4ea0c7d6e"><rect x="247.87" y="41.36" width="80" height="80" style="fill:none;"/></clipPath><clipPath id="uuid-6864a420-1565-436e-b068-d103da4b3b52"><rect x="312.87" y="552.36" width="56" height="56" style="fill:none;"/></clipPath><clipPath id="uuid-3e5ff27d-3e23-4818-852a-eab32daaa923"><rect x="18.87" y="496.36" width="100" height="100" style="fill:none;"/></clipPath></defs><g style="clip-path:url(#uuid-8dd2c914-02d4-4ca4-aaae-1b0cfada9c75);"><path d="M250.02,122.46s113.86,16.74,160.37,66.23c46.51,49.49,80.37,138.42,64.74,207.26s-102.7,73.67-153.3,73.67-110.14,10.42-152.56,138.42H-.03V170.83s130.6-62.88,250.05-48.37Z" style="fill:url(#uuid-62388074-fe85-4899-80fd-2cf01d2e5947); fill-rule:evenodd;"/><path d="M121.22,395.36c0,11.6-9.4,21-21,21s-21-9.4-21-21,9.4-21,21-21,21,9.4,21,21Z" style="fill:#b2ebf2;"/><path d="M101.22,399.36v-8h2v8h-2Zm-4,0v-8h2v8h-2Zm3-14c1.31,0,2.61,.26,3.83,.76,1.21,.5,2.32,1.24,3.24,2.17,.93,.93,1.67,2.03,2.17,3.24,.5,1.21,.76,2.51,.76,3.83,0,2.65-1.05,5.2-2.93,7.07-1.88,1.88-4.42,2.93-7.07,2.93-1.31,0-2.61-.26-3.83-.76-1.21-.5-2.32-1.24-3.24-2.17-1.88-1.88-2.93-4.42-2.93-7.07s1.05-5.2,2.93-7.07c1.88-1.88,4.42-2.93,7.07-2.93Zm0,2c-2.12,0-4.16,.84-5.66,2.34s-2.34,3.53-2.34,5.66,.84,4.16,2.34,5.66,3.54,2.34,5.66,2.34,4.16-.84,5.66-2.34c1.5-1.5,2.34-3.53,2.34-5.66s-.84-4.16-2.34-5.66c-1.5-1.5-3.54-2.34-5.66-2.34Z" style="fill:#0844fc;"/><rect x="153.87" y="237.36" width="168" height="100" rx="4" ry="4" style="fill:url(#uuid-a4cbb5c0-bb58-4692-a441-52bd2c066d9c);"/><g><path d="M195.11,318.36h59.77v8h-59.5l-.27-8Z" style="fill:#0844fc;"/><path d="M303.87,322.36c0,2.21-1.79,4-4,4h-45v-8h45c2.21,0,4,1.79,4,4Z" style="fill:rgba(0,101,255,.4);"/><g style="clip-path:url(#uuid-2e217b64-407b-4b83-8300-486e94fee44e);"><g><path d="M237.24,297.96l23.91-17.85-14.78-10.82v4.97c-5.15,0-9.33-4.18-9.33-9.33v-5.67c0-3.47,3.94-5.47,6.74-3.42l28.42,20.81c2.3,1.69,2.31,5.11,.03,6.82l-21.94,16.38c-4.13,3.09-9.98,2.24-13.06-1.89Z" style="fill:#0844fc;"/><path d="M241.71,288.88c3.27,0,5.91-2.65,5.91-5.91s-2.65-5.91-5.91-5.91-5.91,2.65-5.91,5.91,2.65,5.91,5.91,5.91Z" style="fill:#0844fc;"/></g></g></g><path d="M-.7,.78S16.6-.89,44.51,25.16s53.02,42.42,93.77,17.3,60.46-17.67,73.86-.19,24.56,69.77,44.09,88.19,35.16,43.72,33.3,58.6-10.6,27.16-29.77,33.67-68.46,19.35-68.09,48.74,5.95,54.14,3.53,64-9.12,29.95-42.42,22.88-48.37-22.88-93.58,5.4C14,392.04-.7,389.81-.7,389.81V.78Z" style="fill:url(#uuid-737fba75-7e8d-4716-845f-0166467b3318); fill-rule:evenodd;"/><path d="M222.56,638.45c-13.36-7.78-23.11-22.88-21.47-43.92,1.54-19.63,16.01-39.47,29.39-57.29,11.12-14.82,24.26-25.49,38.36-32.97,15-7.95,30.98-15.36,42.57-9.92,12.26,5.75,20.05,20.16,18.49,38.55-1.45,17.1-16.3,32.74-25.94,49.64-10.66,18.68-16.57,41.91-32.56,52.89-17.56,12.06-35.68,10.66-48.84,3.01Z" style="fill:#0065ff; fill-rule:evenodd;"/><g><rect x="153.22" y="457.36" width="95" height="95" rx="4" ry="4" style="fill:#fff;"/><rect x="187.76" y="466.78" width="47.11" height="4.71" rx="2.36" ry="2.36" style="fill:#b2ebf2;"/><rect x="187.76" y="473.85" width="23.55" height="4.71" rx="2.36" ry="2.36" style="fill:#b2ebf2;"/><rect x="157.93" y="487.19" width="85.58" height="60.45" rx="4" ry="4" style="fill:url(#uuid-3e443b24-878d-4463-9f7a-a3a7f38f9525);"/><circle cx="169.31" cy="472.67" r="9.03" style="fill:rgba(66,198,218,.16);"/><circle cx="169.31" cy="472.67" r="5.89" style="fill:#b2ebf2;"/></g><g style="clip-path:url(#uuid-5b86a81b-27d2-4322-b133-7d778771df7a);"><g><path d="M188.62,534.95l-5.51-9.45-4.43,7.6c-2.18,3.73-6.97,4.99-10.7,2.81l12.06-20.67c1.37-2.35,4.77-2.35,6.15,0l5.51,9.45,14.69-25.18c1.37-2.35,4.77-2.35,6.15,0l21.23,36.4c-3.73,2.18-8.53,.92-10.7-2.81l-13.6-23.32-14.69,25.18c-1.37,2.35-4.77,2.35-6.15,0Z" style="fill:#0844fc;"/><path d="M183.11,510.37c2.72,0,4.93-2.21,4.93-4.93s-2.21-4.93-4.93-4.93-4.93,2.21-4.93,4.93,2.21,4.93,4.93,4.93Z" style="fill:#0844fc;"/></g></g><g style="clip-path:url(#uuid-5295ac48-b235-4081-ba86-9ea85bb031c4);"><g><path d="M146.29,88.54c3.81,0,6.9-3.09,6.9-6.9s-3.09-6.9-6.9-6.9-6.9,3.09-6.9,6.9,3.09,6.9,6.9,6.9Z" style="fill:rgba(8,68,252,.8);"/><path d="M202.24,115.21c-.66-.62-1.06-1.56-1.75-2.92-1.74-3.4-3.27-8.16-4.73-12.93-.17-.53-2.69-8.77-3.95-12.11-3.28-8.74-7.6-15.72-15.47-15.72-10.88,0-14.97,13.34-18.93,26.24-1.61,5.28-3.29,10.74-5.23,14.52-1.78,3.49-4.85,3.46-6.64-.03-1.61-3.18-3.06-7.54-4.43-11.99,0-.03-.03-.09-.06-.2-1.74-5.72-7.92-8.81-13.54-6.78,.67,1.95,1.32,4,1.95,6.06,.17,.53,.33,1.06,.49,1.6,3.96,12.9,8.04,26.24,18.93,26.24s14.97-13.34,18.93-26.24c1.61-5.28,3.29-10.74,5.23-14.52,1.8-3.54,4.85-3.48,6.66,.06,1.73,3.4,3.25,8.13,4.7,12.87,.17,.53,.33,1.06,.48,1.6,.67,2.19,1.35,4.4,2.06,6.55,2.1,6.35,8.95,9.79,15.31,7.7Z" style="fill:rgba(8,68,252,.8);"/></g></g><g style="clip-path:url(#uuid-5c7af2a7-10bd-4f3f-ba80-7be4ea0c7d6e);"><g><path d="M298.37,90.99c-2.24-2.6-1.95-6.53,.65-8.77l.97-.84-8.04-6.94c-2.6-2.25-2.89-6.17-.64-8.77l15.73,13.57c1.31,1.12,1.31,3.15,0,4.28l-8.66,7.46Z" style="fill:#b2ebf2;"/><path d="M284.31,97.1l-15.73-13.57c-1.31-1.12-1.31-3.15,0-4.28l15.73-13.56c2.25,2.6,1.95,6.53-.65,8.77l-8.04,6.94,8.04,6.94c2.6,2.24,2.89,6.17,.65,8.77Z" style="fill:#b2ebf2;"/><path d="M292.16,97.04c2.18,0,3.94-1.76,3.94-3.94s-1.76-3.94-3.94-3.94-3.94,1.76-3.94,3.94,1.76,3.94,3.94,3.94Z" style="fill:#b2ebf2;"/></g></g><g style="clip-path:url(#uuid-6864a420-1565-436e-b068-d103da4b3b52);"><g><path d="M348.43,569.25l-6.84,18.78c-.82,2.26-3.32,3.42-5.57,2.6l6.83-18.78c.82-2.26,3.32-3.42,5.57-2.6Z" style="fill:rgba(0,101,255,.92);"/><path d="M339.91,569.26l-6.84,18.79c-.82,2.26-3.32,3.42-5.57,2.6l6.84-18.79c.82-2.25,3.32-3.42,5.57-2.6Z" style="fill:rgba(0,101,255,.92);"/><path d="M347.24,590.89c1.52,0,2.76-1.23,2.76-2.76s-1.23-2.76-2.76-2.76-2.76,1.23-2.76,2.76,1.24,2.76,2.76,2.76Z" style="fill:rgba(0,101,255,.92);"/></g></g><g style="clip-path:url(#uuid-3e5ff27d-3e23-4818-852a-eab32daaa923);"><g style="opacity:.32;"><path d="M59.93,556.1c-2.72,0-4.93,2.21-4.93,4.93s2.21,4.93,4.93,4.93,4.93-2.21,4.93-4.93-2.2-4.93-4.93-4.93Z" style="fill:#0065ff;"/><path d="M55,526.77v26.99c4.29,0,7.77-3.48,7.77-7.77v-11.45h12.21v23.65c-4.29,0-7.77,3.48-7.77,7.77h15.53v-39.19h-27.74Z" style="fill:#0065ff;"/></g></g></g></svg>
